<svg width="168" height="28" viewBox="0 0 168 28" fill="none" xmlns="http://www.w3.org/2000/svg">
<g clip-path="url(#clip0_45_19)">
<mask id="mask0_45_19" style="mask-type:luminance" maskUnits="userSpaceOnUse" x="0" y="0" width="168" height="28">
<path d="M168 0H0V28H168V0Z" fill="white"/>
</mask>
<g mask="url(#mask0_45_19)">
<path d="M20.9651 7.92154L24.0507 11.2268L32.1291 2.58279L55.6705 27.7724H58.087L32.1291 0L24.0507 8.64392L20.9651 5.33875L0 27.7724H2.41655L20.9651 7.92154Z" fill="url(#paint0_linear_45_19)"/>
<path d="M40.243 13.8735L36.2138 18.1881L28.5097 9.93994L20.3514 18.668L16.8564 14.9274L4.85352 27.772H53.2344L40.243 13.8735Z" fill="url(#paint1_linear_45_19)"/>
<path d="M82.7406 22.0205V21.3179H76.4895V18.4728H81.5723C82.0266 18.4728 82.3911 18.1067 82.3911 17.6614V16.9588H79.1357L80.5987 14H78.8361C78.3718 14 77.9375 14.2622 77.7327 14.6729L76.6043 16.9588H73.8433L72.7149 14.6729C72.5102 14.2622 72.0809 14 71.6115 14H69.849L71.3119 16.9588H68.0566V18.4728H73.9581V21.3179H67.707V22.832H73.9581V27.7749H75.7954C76.175 27.7749 76.4895 27.4681 76.4895 27.0871V22.8271H81.9217C82.3761 22.8271 82.7406 22.4608 82.7406 22.0155V22.0205Z" fill="#006EBB"/>
<path d="M76.4907 6.15137H74.6282C74.2589 6.15137 73.9593 6.44823 73.9593 6.81437V8.24926H63.8887V9.91175H73.9593V11.5643H66.1104C65.2217 11.5643 64.4977 12.2669 64.4977 13.1328V27.7735H66.3351C66.7147 27.7735 67.0292 27.4668 67.0292 27.0859V13.3208C67.0292 13.1823 67.144 13.0734 67.2838 13.0734H83.1661C83.3059 13.0734 83.4207 13.1823 83.4207 13.3208L83.4058 24.3942C83.4058 25.1413 82.7916 25.8241 81.4535 26.5266L82.8066 27.7934C82.9564 27.927 83.1462 28.0011 83.3408 28.0011C83.4607 28.0011 83.5805 27.9764 83.6953 27.9221C85.2781 27.16 85.9521 26.1902 85.9521 24.6663V13.1377C85.9521 12.2718 85.2281 11.5693 84.3394 11.5693H76.4907V9.9167H85.7424C86.1967 9.9167 86.5613 9.55056 86.5613 9.10524V8.25421H76.4907V6.15631V6.15137Z" fill="#006EBB"/>
<path d="M111.006 10.8419V25.4678C111.006 25.6458 110.856 25.7893 110.671 25.7893H104.415V6.64111H102.758C102.199 6.64111 101.744 7.09136 101.744 7.64553V25.7893H95.4882C95.3883 25.7893 95.1536 25.7647 95.1536 25.542V9.80279H93.496C92.9368 9.80279 92.4824 10.2531 92.4824 10.8072V25.8488C92.4824 26.9224 93.3811 27.7983 94.4845 27.7983H111.665C112.769 27.7983 113.667 26.9224 113.667 25.8488V9.79786H112.05C111.47 9.79786 111.001 10.2629 111.001 10.8369L111.006 10.8419Z" fill="#006EBB"/>
<path d="M139.985 16.0075C140.46 16.0075 140.844 15.6266 140.844 15.1565V14.3253H137.204C137.239 14.2906 137.274 14.251 137.299 14.2065L138.343 12.4351C136.53 12.3807 134.967 12.2076 133.58 11.9403C135.172 11.2823 136.605 10.5352 137.604 9.75836H139.975C140.43 9.75836 140.795 9.39222 140.795 8.94691V8.09588H132.016V6.15137H130.155C129.785 6.15137 129.485 6.44823 129.485 6.81437V8.09588H120.268V9.75836H124.272C125.476 10.6539 126.764 11.406 128.042 12.0295C126.46 12.4994 124.767 12.8953 123.029 13.2218L123.394 14.1224C123.434 14.2115 123.499 14.2757 123.569 14.3302H122.001C121.102 14.3302 120.374 15.0427 120.374 15.9185V20.2181C120.374 22.0884 120.443 24.0528 118.676 27.4965L119.509 27.927C119.795 28.0754 120.149 27.9913 120.333 27.7291C121.127 26.6158 122.93 24.3299 122.93 19.5403V16.2598C122.93 16.1213 123.045 16.0075 123.189 16.0075H139.98H139.985ZM127.603 9.75836H133.49C132.631 10.2729 131.667 10.7331 130.624 11.1438C129.505 10.7479 128.516 10.2779 127.603 9.75836ZM130.454 13.0685C132.097 13.6919 133.604 14.1026 134.758 14.3253H125.207C126.694 14.1026 128.567 13.6573 130.454 13.0685Z" fill="#006EBB"/>
<path d="M133.286 23.5284H139.008C139.467 23.5284 139.837 23.1573 139.837 22.707V21.8461H133.286V19.6987H139.532C139.992 19.6987 140.361 19.3276 140.361 18.8774V18.0165H133.286V16.5024H131.424C131.054 16.5024 130.755 16.7992 130.755 17.1655V18.0214H126.815C126.979 17.5513 127.125 17.0714 127.245 16.5766H125.532C125.147 16.5964 124.803 16.8636 124.738 17.2396C124.448 18.9022 124.07 20.154 123.195 21.574L123.944 21.9897C124.224 22.1479 124.558 22.049 124.763 21.8016C125.262 21.1831 125.712 20.4755 126.101 19.7037H130.765V21.8511H124.888V23.5334H130.765V26.1161H123.061V27.7984H140.426C140.885 27.7984 141.255 27.4273 141.255 26.977V26.1161H133.296V23.5334L133.286 23.5284Z" fill="#006EBB"/>
<path d="M154.215 18.8279V17.1803L152.188 17.9126V12.3066H153.066C153.52 12.3066 153.884 11.9405 153.884 11.4952V10.6441H152.182V6.4137H150.52C150.14 6.4137 149.826 6.72046 149.826 7.10145V10.6441H148.642C148.747 9.28346 148.782 8.10092 148.782 7.40822H147.239C146.83 7.42801 146.525 7.76447 146.525 8.17019C146.525 14.2066 145.781 16.6112 145.781 16.6112L147 16.829C147.315 16.8834 147.619 16.7003 147.703 16.3985C148.068 15.1715 148.312 13.7167 148.477 12.3115H149.821V18.7686L147.409 19.6394C146.975 19.7977 146.7 20.1985 146.7 20.6735V22.3211L149.821 21.193V27.7983H151.483C151.863 27.7983 152.178 27.4916 152.178 27.1107V20.3419L153.496 19.867C153.929 19.7086 154.205 19.3079 154.205 18.8329L154.215 18.8279Z" fill="#006EBB"/>
<path d="M166.387 9.19258H157.589C157.79 8.38608 157.983 7.48556 158.164 6.46631H156.451C155.921 6.46631 155.478 6.84729 155.397 7.36682C155.148 8.99961 154.989 12.0277 152.691 15.4714L153.735 15.9464C153.985 16.0602 154.28 15.9959 154.459 15.7931C155.133 15.041 156.177 13.8039 157.115 10.8798H158.359C158.074 14.0959 156.531 19.3556 153.585 22.7497L154.644 23.2693C154.934 23.398 155.257 23.3188 155.487 23.106C158.738 20.0878 160.425 14.2988 160.82 10.8798H162.058C161.863 14.4175 160.975 21.107 156.331 26.1886L157.479 26.708C157.769 26.8367 158.099 26.7625 158.324 26.5447C163.082 22.0076 164.215 14.6847 164.52 10.8749H165.304C165.444 10.8749 165.558 10.9837 165.558 11.1222V23.1901C165.558 24.7338 164.44 25.1989 162.407 26.045L163.511 27.5839C163.661 27.7224 163.856 27.7916 164.05 27.7916C164.17 27.7916 164.285 27.747 164.41 27.7075C166.212 27.1682 167.995 25.951 167.995 23.5464V10.7561C167.995 9.89023 167.27 9.18764 166.382 9.18764L166.387 9.19258Z" fill="#006EBB"/>
</g>
</g>
<defs>
<linearGradient id="paint0_linear_45_19" x1="21.2397" y1="9.01008" x2="30.8113" y2="32.4448" gradientUnits="userSpaceOnUse">
<stop stop-color="#F9BE00"/>
<stop offset="0.06" stop-color="#E6BD05"/>
<stop offset="0.16" stop-color="#B6BB15"/>
<stop offset="0.3" stop-color="#6FB92C"/>
<stop offset="0.52" stop-color="#43975F"/>
<stop offset="0.73" stop-color="#1F7A8A"/>
<stop offset="0.9" stop-color="#0868A5"/>
<stop offset="1" stop-color="#0062B0"/>
</linearGradient>
<linearGradient id="paint1_linear_45_19" x1="20.0967" y1="14.2248" x2="30.538" y2="30.3227" gradientUnits="userSpaceOnUse">
<stop stop-color="#E0E200"/>
<stop offset="0.21" stop-color="#7FBE26"/>
<stop offset="0.32" stop-color="#5FA648"/>
<stop offset="0.46" stop-color="#3D8E6D"/>
<stop offset="0.6" stop-color="#227A8A"/>
<stop offset="0.73" stop-color="#0F6D9F"/>
<stop offset="0.87" stop-color="#0364AB"/>
<stop offset="1" stop-color="#0062B0"/>
</linearGradient>
<clipPath id="clip0_45_19">
<rect width="168" height="28" fill="white"/>
</clipPath>
</defs>
</svg>
