<svg width="1507" height="537" viewBox="0 0 1507 537" fill="none" xmlns="http://www.w3.org/2000/svg">
<path d="M973.44 153.749C743.724 171.914 636.967 265.115 612.303 309.444L570.216 359.397H1507V59.6832C1410.33 65.911 1320.1 130.179 1287.06 161.534C1249.59 196.825 1191.8 187.051 1167.59 177.752C1096.44 158.031 1008.51 153.533 973.44 153.749Z" fill="#B6D5EF"/>
<path d="M0.678711 285.441V0C6.66408 79.21 101.058 73.4417 147.507 60.6563C207.361 50.6658 207.721 70.7116 246.64 89.2004C427.697 160.561 451.763 249.761 441.164 285.441H0.678711Z" fill="#B6D5EF"/>
<path d="M0 537V144.871C105.592 116.303 251.28 111.45 310.925 112.595C532.451 99.4092 635.783 139.496 684.542 164.905C758.565 202.813 855.668 222.931 870.182 224.533C993.237 233.714 1146.84 204.574 1185.17 199.309C1376.21 182.828 1443.73 230.256 1507 251.316V537H0Z" fill="#E4EEF7"/>
</svg>
