<svg width="1697" height="348" viewBox="0 0 1697 348" fill="none" xmlns="http://www.w3.org/2000/svg">
  <g clip-path="url(#clip0_47_52)">
    <path d="M1598.9 152.605C1608.84 144.766 1614.16 136.491 1614.16 127.94C1614.16 78.2632 1434.62 38 1213.14 38C1024.14 38 865.713 67.3276 823.29 106.79C732.877 117.325 656.794 132.87 602.987 151.707C562.215 146.137 516.592 143.013 468.424 143.013C295.321 143.013 155 183.286 155 232.954C155 282.622 295.321 322.894 468.424 322.894C543.852 322.894 613.061 315.242 667.151 302.509C773.887 327.993 928.121 344 1099.66 344C1421.84 344 1683 287.534 1683 217.881C1683 193.99 1652.27 171.647 1598.9 152.605Z" fill="#E4EEF7"/>
    <path d="M1570.74 120.977C1581.55 113.146 1587.35 104.879 1587.35 96.3357C1587.35 46.7055 1392 6.48047 1151.03 6.48047C945.404 6.48047 773.031 35.7803 726.874 75.2053C628.504 85.7305 545.726 101.26 487.183 120.08C442.823 114.515 393.185 111.395 340.779 111.395C152.459 111.395 -0.210938 151.62 -0.210938 201.25C-0.210938 250.88 152.459 291.105 340.795 291.105C422.861 291.105 498.16 283.46 557.01 270.739C673.14 296.199 840.947 312.191 1027.58 312.191C1378.11 312.191 1662.26 255.778 1662.26 186.191C1662.26 162.323 1628.82 140.001 1570.75 120.977H1570.74Z" fill="#B6D5EF"/>
    <path opacity="0.4" d="M1448.39 281.335C1456.03 280.002 1463.51 278.624 1470.83 277.22L1136.33 258.045C742.578 236.514 354.719 262.792 168.52 279.184C219.372 287.131 278.74 291.692 342.139 291.692C424.205 291.692 499.504 284.047 558.354 271.326C614.5 283.638 682.74 293.718 759.334 300.866C1026.17 284.251 1303.99 281.486 1448.39 281.335Z" fill="#E4EEF7"/>
    <path opacity="0.4" d="M1647.86 165.487V159.513C1632.87 145.664 1606.42 132.658 1570.56 120.906C1576.24 116.799 1580.51 112.568 1583.32 108.248C1404.82 134.898 1089.83 139.334 1089.83 139.334C849.382 134.356 543.136 148.055 543.136 148.055C296.338 164.305 93.0591 191.702 0 205.534C0.939009 210.699 3.54557 215.757 7.65778 220.664L39.5031 224.033C62.1851 222.789 561.252 187.915 561.252 187.915C808.519 158.02 1144.25 181.684 1144.25 181.684C1455.03 181.684 1647.85 165.487 1647.85 165.487H1647.86Z" fill="#E4EEF7"/>
    <path opacity="0.4" d="M1328.83 15.4055C1292.64 12.0542 1253.85 9.69848 1213.25 8.4895C1130.41 12.3387 1028.77 16.4189 950.456 17.5035C858.077 27.3175 784.899 43.7275 745.622 63.7023C838.697 66.3247 1017.55 69.9872 1086.64 61.8621C1086.64 61.8621 1245.79 42.7408 1328.83 15.4055Z" fill="#E4EEF7"/>
    <path opacity="0.4" d="M1505.6 44.3586C1371.81 53.7015 1099.68 70.1471 852.086 69.2493C852.086 69.2493 798.077 70.4138 728.947 73.5785C728.121 74.2185 727.328 74.8585 726.583 75.5075C678.062 80.699 633.346 87.1083 593.454 94.531C686.044 97.3046 833.533 101.314 958.712 102.878C958.712 102.878 1364.41 115.413 1583.95 107.394C1585.99 103.865 1587.06 100.274 1587.06 96.6379C1587.06 77.1343 1556.88 59.0797 1505.62 44.3497L1505.6 44.3586Z" fill="#E4EEF7"/>
  </g>
  <defs>
    <clipPath id="clip0_47_52">
      <rect width="1697" height="347.1" fill="white"/>
    </clipPath>
  </defs>
</svg>
